# xmcd
# 
# Track frame offsets:
#     150
#     24066
#     37034
#     60129
#     79567
#     98967
#     122658
#     145624
#     163864
#     195767
#     227695
# 
# Disc length: 4087
# 
# Revision: 2
# Processed by: cddbd v1.5.2PL0 Copyright (c) Steve Scherf et al.
# Submitted via: fre:ac v1.0.31
# 
DISCID=760ff50b
DTITLE=喜多郎 - Best of Silk Road
DYEAR=2002
DGENRE=New Age
TTITLE0=Theme from Silk Road
TTITLE1=Bell Tower
TTITLE2=Flying Celestial Nymphs
TTITLE3=Mirage
TTITLE4=Linden
TTITLE5=40080
TTITLE6=Taklamakan Desert
TTITLE7=Lord of Wind
TTITLE8=Caravansary
TTITLE9=Moon-Star
TTITLE10=Pray at Xian - Mercury
EXTD=YEAR: 2002
EXTT0=
EXTT1=
EXTT2=
EXTT3=
EXTT4=
EXTT5=
EXTT6=
EXTT7=
EXTT8=
EXTT9=
EXTT10=
PLAYORDER=
